<svg viewBox="0 0 200 280" width="100%" height="100%" preserveAspectRatio="xMidYMid meet" xmlns="http://www.w3.org/2000/svg" role="img" aria-label="Generating logo"><style>@keyframes svfg{0%{opacity:0}8%{opacity:1}85%{opacity:1}95%,100%{opacity:0}}@keyframes svrot{from{transform:rotate(0)}to{transform:rotate(16deg)}}@keyframes svfill{0%,60%{fill-opacity:0}72%,100%{fill-opacity:.85}}@keyframes svglow{0%,60%{opacity:0}72%,100%{opacity:.9}}@keyframes svb1{0%,100%{transform:translate(0,0)}50%{transform:translate(32px,50px)}}@keyframes svb2{0%,100%{transform:translate(0,0)}50%{transform:translate(-32px,-45px)}}@keyframes svb3{0%,100%{transform:translate(0,0)}50%{transform:translate(-24px,50px)}}@keyframes svdraw0{0%,8%{stroke-dashoffset:100}16%,100%{stroke-dashoffset:0}}@keyframes svdraw1{0%,14%{stroke-dashoffset:100}22%,100%{stroke-dashoffset:0}}@keyframes svdraw2{0%,20%{stroke-dashoffset:100}28%,100%{stroke-dashoffset:0}}@keyframes svdraw3{0%,26%{stroke-dashoffset:100}34%,100%{stroke-dashoffset:0}}@keyframes svtype0{0%,42%{transform:scaleX(0)}56%,100%{transform:scaleX(1)}}@keyframes svtype1{0%,50%{transform:scaleX(0)}60%,100%{transform:scaleX(1)}}@keyframes svtype2{0%,54%{transform:scaleX(0)}64%,100%{transform:scaleX(1)}}@keyframes svcol0{0%,62%{fill-opacity:0}72%,100%{fill-opacity:.92}}@keyframes svcol1{0%,66%{fill-opacity:0}76%,100%{fill-opacity:.92}}@keyframes svcol2{0%,68%{fill-opacity:0}78%,100%{fill-opacity:.92}}.svfg{animation:svfg 5.4s linear infinite}.svrot{animation:svrot 5.4s cubic-bezier(.4,0,.2,1) infinite;transform-origin:100px 96px}.svglow{animation:svglow 5.4s linear infinite}.svfl{animation:svfill 5.4s linear infinite}.svb1{animation:svb1 6.8s ease-in-out infinite}.svb2{animation:svb2 7.8s ease-in-out infinite}.svb3{animation:svb3 9s ease-in-out infinite}.svd0{animation:svdraw0 5.4s linear infinite}.svd1{animation:svdraw1 5.4s linear infinite}.svd2{animation:svdraw2 5.4s linear infinite}.svd3{animation:svdraw3 5.4s linear infinite}.svt0{animation:svtype0 5.4s cubic-bezier(.4,0,.2,1) infinite;transform-origin:46px 191px}.svc0{animation:svcol0 5.4s linear infinite}.svt1{animation:svtype1 5.4s cubic-bezier(.4,0,.2,1) infinite;transform-origin:60px 218.5px}.svc1{animation:svcol1 5.4s linear infinite}.svt2{animation:svtype2 5.4s cubic-bezier(.4,0,.2,1) infinite;transform-origin:120px 218.5px}.svc2{animation:svcol2 5.4s linear infinite}@media(prefers-reduced-motion:reduce){.svfg,.svrot,.svglow,.svfl,.svb1,.svb2,.svb3,.svd0,.svd1,.svd2,.svd3,.svt0,.svc0,.svt1,.svc1,.svt2,.svc2{animation:none!important}.svfg{opacity:1}.svrot{transform:none}.svglow{opacity:.9}.svfl{fill-opacity:.85}.svd0{stroke-dashoffset:0}.svd1{stroke-dashoffset:0}.svd2{stroke-dashoffset:0}.svd3{stroke-dashoffset:0}.svt0{transform:scaleX(1)}.svc0{fill-opacity:.92}.svt1{transform:scaleX(1)}.svc1{fill-opacity:.92}.svt2{transform:scaleX(1)}.svc2{fill-opacity:.92}}</style><defs><clipPath id="svcp"><rect width="200" height="280" rx="26"/></clipPath><radialGradient id="svbase" cx="50%" cy="40%" r="80%"><stop offset="0%" stop-color="#161a30"/><stop offset="100%" stop-color="#0a0c16"/></radialGradient><radialGradient id="svq1"><stop offset="0%" stop-color="#8b5cf6" stop-opacity="0.9"/><stop offset="100%" stop-color="#8b5cf6" stop-opacity="0"/></radialGradient><radialGradient id="svq2"><stop offset="0%" stop-color="#2563eb" stop-opacity="0.8"/><stop offset="100%" stop-color="#2563eb" stop-opacity="0"/></radialGradient><radialGradient id="svq3"><stop offset="0%" stop-color="#22d3ee" stop-opacity="0.6"/><stop offset="100%" stop-color="#22d3ee" stop-opacity="0"/></radialGradient><linearGradient id="svpetal" x1="0" y1="0" x2="1" y2="1"><stop offset="0%" stop-color="#a78bfa"/><stop offset="100%" stop-color="#7c8cff"/></linearGradient><linearGradient id="svtxt" x1="0" y1="0" x2="1" y2="0"><stop offset="0%" stop-color="#67e8f9"/><stop offset="100%" stop-color="#c4b5fd"/></linearGradient><radialGradient id="svglowGrad" cx="50%" cy="50%" r="50%"><stop offset="0%" stop-color="#c4b5fd" stop-opacity="0.55"/><stop offset="70%" stop-color="#8b5cf6" stop-opacity="0.12"/><stop offset="100%" stop-color="#8b5cf6" stop-opacity="0"/></radialGradient><filter id="svbl"><feGaussianBlur stdDeviation="22"/></filter><filter id="svgr"><feTurbulence type="fractalNoise" baseFrequency="0.85" numOctaves="2" stitchTiles="stitch"/><feColorMatrix type="saturate" values="0"/></filter></defs><g clip-path="url(#svcp)"><rect width="200" height="280" fill="url(#svbase)"/><g filter="url(#svbl)"><g class="svb1"><circle cx="60" cy="112" r="84" fill="url(#svq1)"/></g><g class="svb2"><circle cx="144" cy="168" r="72" fill="url(#svq2)"/></g><g class="svb3"><circle cx="110" cy="90" r="52" fill="url(#svq3)"/></g></g><g class="svfg"><g class="svrot"><g transform="translate(100 96) scale(0.74)" stroke="#eef0ff" stroke-opacity="0.92" stroke-width="3.24" stroke-linejoin="round" stroke-linecap="round"><circle r="60" fill="url(#svglowGrad)" stroke="none" opacity="0" class="svglow"/><g transform="rotate(0)"><path d="M0 0 C 19 -24 19 -55 0 -72 C -19 -55 -19 -24 0 0 Z" fill="url(#svpetal)" fill-opacity="0" stroke="none" class="svfl"/><path d="M0 0 C 19 -24 19 -55 0 -72 C -19 -55 -19 -24 0 0 Z" pathLength="100" stroke-dasharray="100" stroke-dashoffset="100" fill="none" class="svd0"/></g><g transform="rotate(90)"><path d="M0 0 C 19 -24 19 -55 0 -72 C -19 -55 -19 -24 0 0 Z" fill="url(#svpetal)" fill-opacity="0" stroke="none" class="svfl"/><path d="M0 0 C 19 -24 19 -55 0 -72 C -19 -55 -19 -24 0 0 Z" pathLength="100" stroke-dasharray="100" stroke-dashoffset="100" fill="none" class="svd1"/></g><g transform="rotate(180)"><path d="M0 0 C 19 -24 19 -55 0 -72 C -19 -55 -19 -24 0 0 Z" fill="url(#svpetal)" fill-opacity="0" stroke="none" class="svfl"/><path d="M0 0 C 19 -24 19 -55 0 -72 C -19 -55 -19 -24 0 0 Z" pathLength="100" stroke-dasharray="100" stroke-dashoffset="100" fill="none" class="svd2"/></g><g transform="rotate(270)"><path d="M0 0 C 19 -24 19 -55 0 -72 C -19 -55 -19 -24 0 0 Z" fill="url(#svpetal)" fill-opacity="0" stroke="none" class="svfl"/><path d="M0 0 C 19 -24 19 -55 0 -72 C -19 -55 -19 -24 0 0 Z" pathLength="100" stroke-dasharray="100" stroke-dashoffset="100" fill="none" class="svd3"/></g></g></g><rect x="46" y="182" width="108" height="18" rx="9.0" fill="#ffffff" fill-opacity="0.16" class="svt0"/><rect x="46" y="182" width="108" height="18" rx="9.0" fill="url(#svtxt)" fill-opacity="0" class="svc0"/><rect x="60" y="212" width="52" height="13" rx="6.5" fill="#ffffff" fill-opacity="0.16" class="svt1"/><rect x="60" y="212" width="52" height="13" rx="6.5" fill="url(#svtxt)" fill-opacity="0" class="svc1"/><rect x="120" y="212" width="40" height="13" rx="6.5" fill="#ffffff" fill-opacity="0.16" class="svt2"/><rect x="120" y="212" width="40" height="13" rx="6.5" fill="url(#svtxt)" fill-opacity="0" class="svc2"/></g><rect width="200" height="280" filter="url(#svgr)" opacity="0.08" style="mix-blend-mode:overlay"/><rect x="0.75" y="0.75" width="198.5" height="278.5" rx="25.25" fill="none" stroke="#fff" stroke-opacity="0.08"/></g></svg>